<svg viewBox="0 0 1024 1024" class="icon" version="1.1" xmlns="http://www.w3.org/2000/svg" fill="#aaaaaa"
    stroke="#000000">
    <g id="SVGRepo_bgCarrier" stroke-width="0"></g>
    <g id="SVGRepo_tracerCarrier" stroke-linecap="round" stroke-linejoin="round"></g>
    <g id="SVGRepo_iconCarrier">
        <path
            d="M716 190.9v-67.8h-44v67.8H352v-67.8h-44v67.8H92v710h840v-710H716z m-580 44h172v69.2h44v-69.2h320v69.2h44v-69.2h172v151.3H136V234.9z m752 622H136V402.2h752v454.7z"
            fill="#0000003d3d3000000"></path>
        <path d="M319 565.7m-33 0a33 33 0 1 0 66 0 33 33 0 1 0-66 0Z" fill="#0000003d3d3"></path>
        <path d="M510 565.7m-33 0a33 33 0 1 0 66 0 33 33 0 1 0-66 0Z" fill="#0000003d3d3"></path>
        <path d="M701.1 565.7m-33 0a33 33 0 1 0 66 0 33 33 0 1 0-66 0Z" fill="#0000003d3d3"></path>
        <path d="M319 693.4m-33 0a33 33 0 1 0 66 0 33 33 0 1 0-66 0Z" fill="#0000003d3d3"></path>
        <path d="M510 693.4m-33 0a33 33 0 1 0 66 0 33 33 0 1 0-66 0Z" fill="#0000003d3d3"></path>
        <path d="M701.1 693.4m-33 0a33 33 0 1 0 66 0 33 33 0 1 0-66 0Z" fill="#0000003d3d3"></path>
    </g>
</svg>